<svg width="456" height="222" viewBox="0 0 456 222" fill="none" xmlns="http://www.w3.org/2000/svg">
  <rect width="456" height="222" fill="#242424"/>
  <path d="M198.96 97V79.272C198.96 77.224 198.299 75.5387 196.976 74.216C195.696 72.8933 194.032 72.232 191.984 72.232C190.619 72.232 189.403 72.5307 188.336 73.128C187.269 73.7253 186.437 74.5573 185.84 75.624C185.243 76.6907 184.944 77.9067 184.944 79.272L182.192 77.736C182.192 75.3893 182.704 73.32 183.728 71.528C184.752 69.6933 186.16 68.264 187.952 67.24C189.787 66.1733 191.835 65.64 194.096 65.64C196.4 65.64 198.448 66.152 200.24 67.176C202.032 68.2 203.44 69.6293 204.464 71.464C205.488 73.256 206 75.3467 206 77.736V97H198.96ZM177.904 97V50.92H184.944V97H177.904ZM226.018 97.64C223.245 97.64 220.727 96.936 218.466 95.528C216.247 94.12 214.477 92.2213 213.154 89.832C211.874 87.4 211.234 84.6907 211.234 81.704C211.234 78.6747 211.874 75.9653 213.154 73.576C214.477 71.144 216.247 69.224 218.466 67.816C220.727 66.3653 223.245 65.64 226.018 65.64C228.365 65.64 230.434 66.152 232.226 67.176C234.061 68.1573 235.511 69.5227 236.578 71.272C237.645 73.0213 238.178 75.0053 238.178 77.224V86.056C238.178 88.2747 237.645 90.2587 236.578 92.008C235.554 93.7573 234.125 95.144 232.29 96.168C230.455 97.1493 228.365 97.64 226.018 97.64ZM227.17 90.984C229.773 90.984 231.863 90.1093 233.442 88.36C235.063 86.6107 235.874 84.3707 235.874 81.64C235.874 79.8053 235.511 78.184 234.786 76.776C234.061 75.368 233.037 74.28 231.714 73.512C230.434 72.7013 228.919 72.296 227.17 72.296C225.463 72.296 223.949 72.7013 222.626 73.512C221.346 74.28 220.322 75.368 219.554 76.776C218.829 78.184 218.466 79.8053 218.466 81.64C218.466 83.4747 218.829 85.096 219.554 86.504C220.322 87.912 221.346 89.0213 222.626 89.832C223.949 90.6 225.463 90.984 227.17 90.984ZM235.426 97V88.744L236.642 81.256L235.426 73.832V66.28H242.466V97H235.426ZM271.335 97V79.272C271.335 77.224 270.674 75.5387 269.351 74.216C268.071 72.8933 266.407 72.232 264.359 72.232C262.994 72.232 261.778 72.5307 260.711 73.128C259.644 73.7253 258.812 74.5573 258.215 75.624C257.618 76.6907 257.319 77.9067 257.319 79.272L254.567 77.736C254.567 75.3893 255.079 73.32 256.103 71.528C257.127 69.6933 258.535 68.264 260.327 67.24C262.162 66.1733 264.21 65.64 266.471 65.64C268.775 65.64 270.823 66.2373 272.615 67.432C274.407 68.584 275.815 70.0987 276.839 71.976C277.863 73.8107 278.375 75.7307 278.375 77.736V97H271.335ZM250.279 97V66.28H257.319V97H250.279ZM298.393 97.64C295.62 97.64 293.102 96.936 290.841 95.528C288.622 94.12 286.852 92.2213 285.529 89.832C284.249 87.4 283.609 84.6907 283.609 81.704C283.609 78.6747 284.249 75.9653 285.529 73.576C286.852 71.144 288.622 69.224 290.841 67.816C293.102 66.3653 295.62 65.64 298.393 65.64C300.74 65.64 302.809 66.152 304.601 67.176C306.436 68.1573 307.886 69.5227 308.953 71.272C310.02 73.0213 310.553 75.0053 310.553 77.224V86.056C310.553 88.2747 310.02 90.2587 308.953 92.008C307.929 93.7573 306.5 95.144 304.665 96.168C302.83 97.1493 300.74 97.64 298.393 97.64ZM299.545 90.984C301.294 90.984 302.809 90.6 304.089 89.832C305.412 89.0213 306.436 87.912 307.161 86.504C307.886 85.096 308.249 83.4747 308.249 81.64C308.249 79.8053 307.886 78.184 307.161 76.776C306.436 75.368 305.412 74.28 304.089 73.512C302.809 72.7013 301.294 72.296 299.545 72.296C297.838 72.296 296.324 72.7013 295.001 73.512C293.721 74.28 292.697 75.368 291.929 76.776C291.204 78.184 290.841 79.8053 290.841 81.64C290.841 83.4747 291.204 85.096 291.929 86.504C292.697 87.912 293.721 89.0213 295.001 89.832C296.324 90.6 297.838 90.984 299.545 90.984ZM314.841 97H307.801V88.744L309.017 81.256L307.801 73.832V50.92H314.841V97ZM332.574 97.32L319.454 66.28H327.198L336.158 89.064H333.918L343.39 66.28H351.198L336.926 97.32H332.574ZM323.422 109.8L332.958 90.152L336.926 97.32L331.23 109.8H323.422ZM187.952 178.64C186.245 178.64 184.603 178.427 183.024 178C181.445 177.531 179.995 176.891 178.672 176.08C177.349 175.227 176.197 174.203 175.216 173.008L179.696 168.528C180.763 169.765 181.979 170.704 183.344 171.344C184.752 171.941 186.331 172.24 188.08 172.24C189.659 172.24 190.853 172.005 191.664 171.536C192.475 171.067 192.88 170.384 192.88 169.488C192.88 168.549 192.496 167.824 191.728 167.312C190.96 166.8 189.957 166.373 188.72 166.032C187.525 165.648 186.245 165.264 184.88 164.88C183.557 164.496 182.277 163.984 181.04 163.344C179.845 162.661 178.864 161.744 178.096 160.592C177.328 159.44 176.944 157.947 176.944 156.112C176.944 154.149 177.392 152.464 178.288 151.056C179.227 149.648 180.528 148.56 182.192 147.792C183.899 147.024 185.925 146.64 188.272 146.64C190.747 146.64 192.923 147.088 194.8 147.984C196.72 148.837 198.32 150.139 199.6 151.888L195.12 156.368C194.224 155.259 193.2 154.427 192.048 153.872C190.896 153.317 189.573 153.04 188.08 153.04C186.672 153.04 185.584 153.253 184.816 153.68C184.048 154.107 183.664 154.725 183.664 155.536C183.664 156.389 184.048 157.051 184.816 157.52C185.584 157.989 186.565 158.395 187.76 158.736C188.997 159.077 190.277 159.461 191.6 159.888C192.965 160.272 194.245 160.827 195.44 161.552C196.677 162.235 197.68 163.173 198.448 164.368C199.216 165.52 199.6 167.035 199.6 168.912C199.6 171.899 198.555 174.267 196.464 176.016C194.373 177.765 191.536 178.64 187.952 178.64ZM226.46 178V160.272C226.46 158.224 225.799 156.539 224.476 155.216C223.196 153.893 221.532 153.232 219.484 153.232C218.119 153.232 216.903 153.531 215.836 154.128C214.769 154.725 213.937 155.557 213.34 156.624C212.743 157.691 212.444 158.907 212.444 160.272L209.692 158.736C209.692 156.389 210.204 154.32 211.228 152.528C212.252 150.693 213.66 149.264 215.452 148.24C217.287 147.173 219.335 146.64 221.596 146.64C223.9 146.64 225.948 147.237 227.74 148.432C229.532 149.584 230.94 151.099 231.964 152.976C232.988 154.811 233.5 156.731 233.5 158.736V178H226.46ZM205.404 178V147.28H212.444V178H205.404ZM240.718 178V147.28H247.758V178H240.718ZM244.238 141.648C243.043 141.648 242.041 141.243 241.23 140.432C240.462 139.621 240.078 138.619 240.078 137.424C240.078 136.229 240.462 135.227 241.23 134.416C242.041 133.605 243.043 133.2 244.238 133.2C245.475 133.2 246.478 133.605 247.246 134.416C248.014 135.227 248.398 136.229 248.398 137.424C248.398 138.619 248.014 139.621 247.246 140.432C246.478 141.243 245.475 141.648 244.238 141.648ZM272.102 178.64C269.755 178.64 267.665 178.149 265.83 177.168C263.995 176.144 262.545 174.757 261.478 173.008C260.454 171.259 259.942 169.275 259.942 167.056V158.224C259.942 156.005 260.475 154.021 261.542 152.272C262.609 150.523 264.059 149.157 265.894 148.176C267.729 147.152 269.798 146.64 272.102 146.64C274.875 146.64 277.371 147.365 279.59 148.816C281.851 150.224 283.622 152.144 284.902 154.576C286.225 156.965 286.886 159.675 286.886 162.704C286.886 165.691 286.225 168.4 284.902 170.832C283.622 173.221 281.851 175.12 279.59 176.528C277.371 177.936 274.875 178.64 272.102 178.64ZM270.95 171.984C272.657 171.984 274.15 171.6 275.43 170.832C276.753 170.021 277.777 168.912 278.502 167.504C279.27 166.096 279.654 164.475 279.654 162.64C279.654 160.805 279.27 159.184 278.502 157.776C277.777 156.368 276.753 155.28 275.43 154.512C274.15 153.701 272.657 153.296 270.95 153.296C269.243 153.296 267.729 153.701 266.406 154.512C265.083 155.28 264.059 156.368 263.334 157.776C262.609 159.184 262.246 160.805 262.246 162.64C262.246 164.475 262.609 166.096 263.334 167.504C264.059 168.912 265.083 170.021 266.406 170.832C267.729 171.6 269.243 171.984 270.95 171.984ZM255.654 190.8V147.28H262.694V155.536L261.478 163.024L262.694 170.448V190.8H255.654ZM309.227 178.64C306.88 178.64 304.79 178.149 302.955 177.168C301.12 176.144 299.67 174.757 298.603 173.008C297.579 171.259 297.067 169.275 297.067 167.056V158.224C297.067 156.005 297.6 154.021 298.667 152.272C299.734 150.523 301.184 149.157 303.019 148.176C304.854 147.152 306.923 146.64 309.227 146.64C312 146.64 314.496 147.365 316.715 148.816C318.976 150.224 320.747 152.144 322.027 154.576C323.35 156.965 324.011 159.675 324.011 162.704C324.011 165.691 323.35 168.4 322.027 170.832C320.747 173.221 318.976 175.12 316.715 176.528C314.496 177.936 312 178.64 309.227 178.64ZM308.075 171.984C309.782 171.984 311.275 171.6 312.555 170.832C313.878 170.021 314.902 168.912 315.627 167.504C316.395 166.096 316.779 164.475 316.779 162.64C316.779 160.805 316.395 159.184 315.627 157.776C314.902 156.368 313.878 155.28 312.555 154.512C311.275 153.701 309.782 153.296 308.075 153.296C306.368 153.296 304.854 153.701 303.531 154.512C302.208 155.28 301.184 156.368 300.459 157.776C299.734 159.184 299.371 160.805 299.371 162.64C299.371 164.475 299.734 166.096 300.459 167.504C301.184 168.912 302.208 170.021 303.531 170.832C304.854 171.6 306.368 171.984 308.075 171.984ZM292.779 190.8V147.28H299.819V155.536L298.603 163.024L299.819 170.448V190.8H292.779ZM344.176 178.64C341.104 178.64 338.331 177.957 335.856 176.592C333.424 175.184 331.483 173.264 330.032 170.832C328.624 168.4 327.92 165.669 327.92 162.64C327.92 159.611 328.624 156.901 330.032 154.512C331.44 152.08 333.339 150.16 335.728 148.752C338.16 147.344 340.848 146.64 343.792 146.64C346.651 146.64 349.168 147.301 351.344 148.624C353.563 149.947 355.291 151.76 356.528 154.064C357.808 156.368 358.448 158.992 358.448 161.936C358.448 162.448 358.405 162.981 358.32 163.536C358.277 164.048 358.192 164.624 358.064 165.264H332.848V159.504H354.416L351.792 161.808C351.707 159.931 351.344 158.352 350.704 157.072C350.064 155.792 349.147 154.811 347.952 154.128C346.8 153.445 345.371 153.104 343.664 153.104C341.872 153.104 340.315 153.488 338.992 154.256C337.669 155.024 336.645 156.112 335.92 157.52C335.195 158.885 334.832 160.528 334.832 162.448C334.832 164.368 335.216 166.053 335.984 167.504C336.752 168.955 337.84 170.085 339.248 170.896C340.656 171.664 342.277 172.048 344.112 172.048C345.691 172.048 347.141 171.771 348.464 171.216C349.829 170.661 350.981 169.851 351.92 168.784L356.4 173.328C354.907 175.077 353.093 176.4 350.96 177.296C348.827 178.192 346.565 178.64 344.176 178.64ZM367.951 178V134.48H374.991V178H367.951ZM360.591 153.68V147.28H382.351V153.68H360.591ZM396.89 178.64C395.183 178.64 393.54 178.427 391.962 178C390.383 177.531 388.932 176.891 387.61 176.08C386.287 175.227 385.135 174.203 384.154 173.008L388.634 168.528C389.7 169.765 390.916 170.704 392.282 171.344C393.69 171.941 395.268 172.24 397.018 172.24C398.596 172.24 399.791 172.005 400.602 171.536C401.412 171.067 401.818 170.384 401.818 169.488C401.818 168.549 401.434 167.824 400.666 167.312C399.898 166.8 398.895 166.373 397.658 166.032C396.463 165.648 395.183 165.264 393.818 164.88C392.495 164.496 391.215 163.984 389.978 163.344C388.783 162.661 387.802 161.744 387.034 160.592C386.266 159.44 385.882 157.947 385.882 156.112C385.882 154.149 386.33 152.464 387.226 151.056C388.164 149.648 389.466 148.56 391.13 147.792C392.836 147.024 394.863 146.64 397.21 146.64C399.684 146.64 401.86 147.088 403.738 147.984C405.658 148.837 407.258 150.139 408.538 151.888L404.058 156.368C403.162 155.259 402.138 154.427 400.986 153.872C399.834 153.317 398.511 153.04 397.018 153.04C395.61 153.04 394.522 153.253 393.754 153.68C392.986 154.107 392.602 154.725 392.602 155.536C392.602 156.389 392.986 157.051 393.754 157.52C394.522 157.989 395.503 158.395 396.698 158.736C397.935 159.077 399.215 159.461 400.538 159.888C401.903 160.272 403.183 160.827 404.378 161.552C405.615 162.235 406.618 163.173 407.386 164.368C408.154 165.52 408.538 167.035 408.538 168.912C408.538 171.899 407.492 174.267 405.402 176.016C403.311 177.765 400.474 178.64 396.89 178.64Z" fill="white"/>
  <ellipse cx="48.5424" cy="44.594" rx="48.5424" ry="44.594" transform="matrix(-1 0 0 1 140.236 26)" fill="white"/>
  <ellipse cx="48.5424" cy="42.5484" rx="48.5424" ry="42.5484" transform="matrix(-1 0 0 1 140.236 110.279)" fill="white"/>
  <rect width="97.0849" height="82.642" transform="matrix(-1 0 0 1 140.236 70.1851)" fill="white"/>
  <ellipse cx="22.0239" cy="20.0468" rx="22.0239" ry="20.0468" transform="matrix(-1 0 0 1 113.268 49.729)" fill="#242424"/>
  <ellipse cx="22.0239" cy="20.0468" rx="22.0239" ry="20.0468" transform="matrix(-1 0 0 1 113.268 132.371)" fill="#242424"/>
  <rect width="12.6764" height="72.4249" transform="matrix(-0.570825 0.821072 0.86653 0.499125 86.2416 75.9126)" fill="#242424"/>
  <rect width="12.6764" height="74.4852" transform="matrix(-0.570825 0.821072 0.86653 0.499125 38.8356 98.8257)" fill="#242424"/>
</svg>
