<svg width="456" height="222" viewBox="0 0 456 222" fill="none" xmlns="http://www.w3.org/2000/svg">
  <rect width="456" height="222" fill="white"/>
  <path d="M199.728 87V69.272C199.728 66.968 199.003 65.0693 197.552 63.576C196.101 62.0827 194.224 61.336 191.92 61.336C190.384 61.336 189.019 61.6773 187.824 62.36C186.629 63.0427 185.691 63.9813 185.008 65.176C184.325 66.3707 183.984 67.736 183.984 69.272L181.616 67.928C181.616 65.624 182.128 63.576 183.152 61.784C184.176 59.992 185.605 58.584 187.44 57.56C189.275 56.4933 191.344 55.96 193.648 55.96C195.952 55.96 197.979 56.472 199.728 57.496C201.52 58.52 202.928 59.9493 203.952 61.784C204.976 63.6187 205.488 65.7307 205.488 68.12V87H199.728ZM178.224 87V41.304H183.984V87H178.224ZM226.215 87.64C223.441 87.64 220.924 86.9573 218.663 85.592C216.401 84.184 214.609 82.2853 213.286 79.896C212.007 77.5067 211.367 74.8187 211.367 71.832C211.367 68.8453 212.007 66.1573 213.286 63.768C214.609 61.3787 216.38 59.48 218.599 58.072C220.86 56.664 223.399 55.96 226.215 55.96C228.519 55.96 230.567 56.4507 232.359 57.432C234.193 58.3707 235.665 59.6933 236.775 61.4C237.884 63.064 238.503 65.0053 238.631 67.224V76.376C238.503 78.552 237.884 80.4933 236.775 82.2C235.708 83.9067 234.257 85.2507 232.423 86.232C230.631 87.1707 228.561 87.64 226.215 87.64ZM227.175 82.2C230.033 82.2 232.337 81.24 234.087 79.32C235.836 77.3573 236.711 74.8613 236.711 71.832C236.711 69.7413 236.305 67.928 235.495 66.392C234.727 64.8133 233.617 63.5973 232.167 62.744C230.716 61.848 229.031 61.4 227.111 61.4C225.191 61.4 223.484 61.848 221.991 62.744C220.54 63.64 219.388 64.8773 218.535 66.456C217.724 67.992 217.319 69.7627 217.319 71.768C217.319 73.816 217.724 75.6293 218.535 77.208C219.388 78.744 220.561 79.96 222.055 80.856C223.548 81.752 225.255 82.2 227.175 82.2ZM236.327 87V78.808L237.415 71.384L236.327 64.024V56.6H242.151V87H236.327ZM272.041 87V69.272C272.041 66.968 271.315 65.0693 269.865 63.576C268.414 62.0827 266.537 61.336 264.233 61.336C262.697 61.336 261.331 61.6773 260.137 62.36C258.942 63.0427 258.003 63.9813 257.321 65.176C256.638 66.3707 256.297 67.736 256.297 69.272L253.929 67.928C253.929 65.624 254.441 63.576 255.465 61.784C256.489 59.992 257.918 58.584 259.753 57.56C261.587 56.4933 263.657 55.96 265.961 55.96C268.265 55.96 270.291 56.536 272.041 57.688C273.833 58.84 275.241 60.3547 276.265 62.232C277.289 64.0667 277.801 66.0293 277.801 68.12V87H272.041ZM250.536 87V56.6H256.297V87H250.536ZM298.463 87.64C295.647 87.64 293.13 86.9573 290.911 85.592C288.692 84.184 286.922 82.2853 285.599 79.896C284.319 77.5067 283.679 74.8187 283.679 71.832C283.679 68.8453 284.319 66.1573 285.599 63.768C286.922 61.3787 288.692 59.48 290.911 58.072C293.13 56.664 295.647 55.96 298.463 55.96C300.724 55.96 302.772 56.4507 304.607 57.432C306.442 58.3707 307.914 59.6933 309.023 61.4C310.175 63.064 310.815 65.0053 310.943 67.224V76.376C310.815 78.552 310.196 80.4933 309.087 82.2C307.978 83.9067 306.506 85.2507 304.671 86.232C302.836 87.1707 300.767 87.64 298.463 87.64ZM299.423 82.2C301.343 82.2 303.007 81.752 304.415 80.856C305.866 79.96 306.996 78.744 307.807 77.208C308.618 75.6293 309.023 73.8373 309.023 71.832C309.023 69.7413 308.596 67.928 307.743 66.392C306.932 64.856 305.802 63.64 304.351 62.744C302.943 61.848 301.279 61.4 299.359 61.4C297.439 61.4 295.754 61.848 294.303 62.744C292.852 63.64 291.7 64.8773 290.847 66.456C290.036 67.992 289.631 69.7627 289.631 71.768C289.631 73.816 290.036 75.6293 290.847 77.208C291.7 78.744 292.852 79.96 294.303 80.856C295.796 81.752 297.503 82.2 299.423 82.2ZM314.463 87H308.639V78.808L309.727 71.384L308.639 64.024V41.304H314.463V87ZM332.833 87.256L319.649 56.6H326.049L335.841 80.6H333.793L344.097 56.6H350.497L336.289 87.256H332.833ZM324.129 99.736L333.089 81.368L336.289 87.256L330.529 99.736H324.129ZM187.888 168.64C186.181 168.64 184.56 168.427 183.024 168C181.531 167.531 180.144 166.891 178.864 166.08C177.584 165.227 176.475 164.224 175.536 163.072L179.248 159.36C180.357 160.725 181.637 161.749 183.088 162.432C184.539 163.072 186.16 163.392 187.952 163.392C189.744 163.392 191.131 163.093 192.112 162.496C193.093 161.856 193.584 160.981 193.584 159.872C193.584 158.763 193.179 157.909 192.368 157.312C191.6 156.672 190.597 156.16 189.36 155.776C188.123 155.349 186.8 154.944 185.392 154.56C184.027 154.133 182.725 153.6 181.488 152.96C180.251 152.32 179.227 151.445 178.416 150.336C177.648 149.227 177.264 147.755 177.264 145.92C177.264 144.085 177.712 142.507 178.608 141.184C179.504 139.819 180.741 138.773 182.32 138.048C183.941 137.323 185.883 136.96 188.144 136.96C190.533 136.96 192.645 137.387 194.48 138.24C196.357 139.051 197.893 140.288 199.088 141.952L195.376 145.664C194.523 144.555 193.456 143.701 192.176 143.104C190.939 142.507 189.531 142.208 187.952 142.208C186.288 142.208 185.008 142.507 184.112 143.104C183.259 143.659 182.832 144.448 182.832 145.472C182.832 146.496 183.216 147.285 183.984 147.84C184.752 148.395 185.755 148.864 186.992 149.248C188.272 149.632 189.595 150.037 190.96 150.464C192.325 150.848 193.627 151.381 194.864 152.064C196.101 152.747 197.104 153.664 197.872 154.816C198.683 155.968 199.088 157.483 199.088 159.36C199.088 162.219 198.064 164.48 196.016 166.144C194.011 167.808 191.301 168.64 187.888 168.64ZM227.041 168V150.272C227.041 147.968 226.315 146.069 224.865 144.576C223.414 143.083 221.537 142.336 219.233 142.336C217.697 142.336 216.331 142.677 215.137 143.36C213.942 144.043 213.003 144.981 212.321 146.176C211.638 147.371 211.297 148.736 211.297 150.272L208.929 148.928C208.929 146.624 209.441 144.576 210.465 142.784C211.489 140.992 212.918 139.584 214.753 138.56C216.587 137.493 218.657 136.96 220.961 136.96C223.265 136.96 225.291 137.536 227.041 138.688C228.833 139.84 230.241 141.355 231.265 143.232C232.289 145.067 232.801 147.029 232.801 149.12V168H227.041ZM205.536 168V137.6H211.297V168H205.536ZM240.663 168V137.6H246.423V168H240.663ZM243.543 131.52C242.476 131.52 241.602 131.179 240.919 130.496C240.236 129.771 239.895 128.875 239.895 127.808C239.895 126.784 240.236 125.931 240.919 125.248C241.602 124.523 242.476 124.16 243.543 124.16C244.61 124.16 245.484 124.523 246.167 125.248C246.85 125.931 247.191 126.784 247.191 127.808C247.191 128.875 246.85 129.771 246.167 130.496C245.484 131.179 244.61 131.52 243.543 131.52ZM270.912 168.64C268.608 168.64 266.517 168.171 264.64 167.232C262.805 166.251 261.333 164.907 260.224 163.2C259.114 161.493 258.496 159.552 258.368 157.376V148.224C258.496 146.005 259.114 144.064 260.224 142.4C261.376 140.693 262.869 139.371 264.704 138.432C266.581 137.451 268.65 136.96 270.912 136.96C273.685 136.96 276.181 137.664 278.4 139.072C280.661 140.48 282.432 142.379 283.712 144.768C284.992 147.157 285.632 149.845 285.632 152.832C285.632 155.819 284.992 158.507 283.712 160.896C282.432 163.285 280.661 165.184 278.4 166.592C276.181 167.957 273.685 168.64 270.912 168.64ZM269.952 163.2C271.872 163.2 273.557 162.752 275.008 161.856C276.458 160.96 277.61 159.744 278.464 158.208C279.317 156.629 279.744 154.816 279.744 152.768C279.744 150.763 279.317 148.971 278.464 147.392C277.61 145.813 276.458 144.597 275.008 143.744C273.557 142.848 271.893 142.4 270.016 142.4C268.096 142.4 266.41 142.848 264.96 143.744C263.509 144.597 262.378 145.813 261.568 147.392C260.757 148.971 260.352 150.784 260.352 152.832C260.352 154.837 260.736 156.629 261.504 158.208C262.314 159.744 263.445 160.96 264.896 161.856C266.389 162.752 268.074 163.2 269.952 163.2ZM254.911 180.736V137.6H260.672V145.6L259.584 152.96L260.672 160.384V180.736H254.911ZM308.162 168.64C305.858 168.64 303.767 168.171 301.89 167.232C300.055 166.251 298.583 164.907 297.474 163.2C296.364 161.493 295.746 159.552 295.618 157.376V148.224C295.746 146.005 296.364 144.064 297.474 142.4C298.626 140.693 300.119 139.371 301.954 138.432C303.831 137.451 305.9 136.96 308.162 136.96C310.935 136.96 313.431 137.664 315.65 139.072C317.911 140.48 319.682 142.379 320.962 144.768C322.242 147.157 322.882 149.845 322.882 152.832C322.882 155.819 322.242 158.507 320.962 160.896C319.682 163.285 317.911 165.184 315.65 166.592C313.431 167.957 310.935 168.64 308.162 168.64ZM307.202 163.2C309.122 163.2 310.807 162.752 312.258 161.856C313.708 160.96 314.86 159.744 315.714 158.208C316.567 156.629 316.994 154.816 316.994 152.768C316.994 150.763 316.567 148.971 315.714 147.392C314.86 145.813 313.708 144.597 312.258 143.744C310.807 142.848 309.143 142.4 307.266 142.4C305.346 142.4 303.66 142.848 302.21 143.744C300.759 144.597 299.628 145.813 298.818 147.392C298.007 148.971 297.602 150.784 297.602 152.832C297.602 154.837 297.986 156.629 298.754 158.208C299.564 159.744 300.695 160.96 302.146 161.856C303.639 162.752 305.324 163.2 307.202 163.2ZM292.161 180.736V137.6H297.922V145.6L296.834 152.96L297.922 160.384V180.736H292.161ZM343.492 168.64C340.462 168.64 337.732 167.957 335.3 166.592C332.868 165.184 330.948 163.285 329.54 160.896C328.132 158.507 327.428 155.797 327.428 152.768C327.428 149.781 328.11 147.093 329.476 144.704C330.884 142.315 332.761 140.437 335.108 139.072C337.497 137.664 340.164 136.96 343.108 136.96C345.924 136.96 348.398 137.6 350.532 138.88C352.708 140.16 354.393 141.931 355.588 144.192C356.825 146.453 357.444 149.013 357.444 151.872C357.444 152.299 357.422 152.768 357.38 153.28C357.337 153.749 357.252 154.304 357.124 154.944H331.46V150.144H354.052L351.94 152C351.94 149.952 351.577 148.224 350.852 146.816C350.126 145.365 349.102 144.256 347.78 143.488C346.457 142.677 344.857 142.272 342.98 142.272C341.017 142.272 339.289 142.699 337.796 143.552C336.302 144.405 335.15 145.6 334.34 147.136C333.529 148.672 333.124 150.485 333.124 152.576C333.124 154.709 333.55 156.587 334.404 158.208C335.257 159.787 336.473 161.024 338.052 161.92C339.63 162.773 341.444 163.2 343.492 163.2C345.198 163.2 346.756 162.901 348.164 162.304C349.614 161.707 350.852 160.811 351.876 159.616L355.588 163.392C354.137 165.099 352.345 166.4 350.212 167.296C348.121 168.192 345.881 168.64 343.492 168.64ZM367.459 168V124.864H373.219V168H367.459ZM359.971 142.848V137.6H380.707V142.848H359.971ZM395.388 168.64C393.681 168.64 392.06 168.427 390.524 168C389.031 167.531 387.644 166.891 386.364 166.08C385.084 165.227 383.975 164.224 383.036 163.072L386.748 159.36C387.857 160.725 389.137 161.749 390.588 162.432C392.039 163.072 393.66 163.392 395.452 163.392C397.244 163.392 398.631 163.093 399.612 162.496C400.593 161.856 401.084 160.981 401.084 159.872C401.084 158.763 400.679 157.909 399.868 157.312C399.1 156.672 398.097 156.16 396.86 155.776C395.623 155.349 394.3 154.944 392.892 154.56C391.527 154.133 390.225 153.6 388.988 152.96C387.751 152.32 386.727 151.445 385.916 150.336C385.148 149.227 384.764 147.755 384.764 145.92C384.764 144.085 385.212 142.507 386.108 141.184C387.004 139.819 388.241 138.773 389.82 138.048C391.441 137.323 393.383 136.96 395.644 136.96C398.033 136.96 400.145 137.387 401.98 138.24C403.857 139.051 405.393 140.288 406.588 141.952L402.876 145.664C402.023 144.555 400.956 143.701 399.676 143.104C398.439 142.507 397.031 142.208 395.452 142.208C393.788 142.208 392.508 142.507 391.612 143.104C390.759 143.659 390.332 144.448 390.332 145.472C390.332 146.496 390.716 147.285 391.484 147.84C392.252 148.395 393.255 148.864 394.492 149.248C395.772 149.632 397.095 150.037 398.46 150.464C399.825 150.848 401.127 151.381 402.364 152.064C403.601 152.747 404.604 153.664 405.372 154.816C406.183 155.968 406.588 157.483 406.588 159.36C406.588 162.219 405.564 164.48 403.516 166.144C401.511 167.808 398.801 168.64 395.388 168.64Z" fill="black"/>
  <ellipse cx="46.8885" cy="44.594" rx="46.8885" ry="44.594" transform="matrix(-1 0 0 1 138.534 16)" fill="#1677FF"/>
  <ellipse cx="46.8885" cy="42.5484" rx="46.8885" ry="42.5484" transform="matrix(-1 0 0 1 138.534 100.279)" fill="#1677FF"/>
  <rect width="93.7771" height="82.642" transform="matrix(-1 0 0 1 138.534 60.1851)" fill="#1677FF"/>
  <ellipse cx="21.2735" cy="20.0468" rx="21.2735" ry="20.0468" transform="matrix(-1 0 0 1 112.485 39.729)" fill="white"/>
  <ellipse cx="21.2735" cy="20.0468" rx="21.2735" ry="20.0468" transform="matrix(-1 0 0 1 112.485 122.371)" fill="white"/>
  <rect width="12.5373" height="70.5801" transform="matrix(-0.557494 0.830181 0.858884 0.512171 86.3799 65.9126)" fill="white"/>
  <rect width="12.5373" height="72.5879" transform="matrix(-0.557494 0.830181 0.858884 0.512171 40.589 88.8257)" fill="white"/>
</svg>
