<svg width="114" height="170" viewBox="0 0 114 170" fill="none" xmlns="http://www.w3.org/2000/svg">
  <ellipse cx="46.8885" cy="44.594" rx="46.8885" ry="44.594" transform="matrix(-1 0 0 1 105.534 0)" fill="#1677FF"/>
  <ellipse cx="46.8885" cy="42.5484" rx="46.8885" ry="42.5484" transform="matrix(-1 0 0 1 105.534 84.2787)" fill="#1677FF"/>
  <rect width="93.7771" height="82.642" transform="matrix(-1 0 0 1 105.534 44.1851)" fill="#1677FF"/>
  <ellipse cx="21.2735" cy="20.0468" rx="21.2735" ry="20.0468" transform="matrix(-1 0 0 1 79.485 23.729)" fill="white"/>
  <ellipse cx="21.2735" cy="20.0468" rx="21.2735" ry="20.0468" transform="matrix(-1 0 0 1 79.485 106.371)" fill="white"/>
  <rect width="12.5373" height="70.5801" transform="matrix(-0.557494 0.830181 0.858884 0.512171 53.3799 49.9126)" fill="white"/>
  <rect width="12.5373" height="72.5879" transform="matrix(-0.557494 0.830181 0.858884 0.512171 7.58899 72.8257)" fill="white"/>
</svg>
